<svg xmlns="http://www.w3.org/2000/svg" version="1.1" xmlns:xlink="http://www.w3.org/1999/xlink" width="1000" height="1000"><metadata><rdf:RDF xmlns:rdf="http://www.w3.org/1999/02/22-rdf-syntax-ns#" xmlns:dc="http://purl.org/dc/elements/1.1/"><rdf:Description><dc:creator>RealFaviconGenerator</dc:creator><dc:source>https://realfavicongenerator.net</dc:source></rdf:Description></rdf:RDF></metadata><g clip-path="url(#SvgjsClipPath1941)"><rect width="1000" height="1000" fill="#000000"></rect><g transform="matrix(33.333333333333336,0,0,33.333333333333336,249.99999999999997,249.99999999999997)"><svg xmlns="http://www.w3.org/2000/svg" width="15" height="15" viewBox="0 0 15 15" fill="none"><path d="M14.1081 0.980072C14.1981 0.740072 14.1681 0.520072 14.0281 0.320072H14.0181C13.9568 0.221713 13.8712 0.14068 13.7697 0.0846722C13.6682 0.0286646 13.5541 -0.00045765 13.4381 7.21524e-05H11.7581C11.6165 -0.00196075 11.4776 0.0390069 11.3598 0.117565C11.242 0.196123 11.1507 0.308576 11.0981 0.440072L7.09813 10.6001L4.03813 2.90007H7.36813C7.4615 2.90185 7.55422 2.88409 7.64033 2.84792C7.72643 2.81176 7.80403 2.75799 7.86813 2.69007C7.93404 2.62288 7.98573 2.54308 8.02009 2.45545C8.05446 2.36782 8.07079 2.27416 8.06813 2.18007V0.720072C8.07079 0.625984 8.05446 0.532324 8.02009 0.444695C7.98573 0.357066 7.93404 0.277267 7.86813 0.210072C7.72813 0.0700721 7.55813 7.21524e-05 7.37813 7.21524e-05H0.698129C0.583701 0.000296752 0.471236 0.0298248 0.371456 0.0858417C0.271676 0.141859 0.187906 0.222498 0.128129 0.320072C0.0567141 0.413138 0.0131672 0.524555 0.00254654 0.641383C-0.00807414 0.75821 0.0146673 0.875654 0.0681295 0.980072L5.53813 14.5201C5.59072 14.6516 5.68195 14.764 5.79979 14.8426C5.91763 14.9211 6.05652 14.9621 6.19813 14.9601H7.96813C8.10974 14.9621 8.24863 14.9211 8.36647 14.8426C8.48431 14.764 8.57554 14.6516 8.62813 14.5201L14.1081 0.980072Z" fill="white"></path></svg></g></g><defs><clipPath id="SvgjsClipPath1941"><rect width="1000" height="1000" x="0" y="0" rx="0" ry="0"></rect></clipPath></defs></svg>